<svg width="39" height="21" viewBox="0 0 39 21" fill="none" xmlns="http://www.w3.org/2000/svg">
<path fill-rule="evenodd" clip-rule="evenodd" d="M10.3208 18.0615C14.5959 18.0615 18.0615 14.5959 18.0615 10.3208C18.0615 6.04581 14.5959 2.58021 10.3208 2.58021C6.04581 2.58021 2.58021 6.04581 2.58021 10.3208C2.58021 14.5959 6.04581 18.0615 10.3208 18.0615ZM10.3208 20.6417C16.0209 20.6417 20.6417 16.0209 20.6417 10.3208C20.6417 4.6208 16.0209 0 10.3208 0C4.6208 0 0 4.6208 0 10.3208C0 16.0209 4.6208 20.6417 10.3208 20.6417ZM23.2219 0H24.512H38.7032V2.58021H25.8021V9.03074H38.7032V11.611H25.8021V18.0615H38.7032V20.6417H24.512H23.2219V19.3516V11.611V9.03074V1.29011V0Z" fill="#71767D"/>
</svg>
