<svg width="154" height="23" viewBox="0 0 154 23" fill="none" xmlns="http://www.w3.org/2000/svg">
<path fill-rule="evenodd" clip-rule="evenodd" d="M0 0H16.5134V14.4492H0V0ZM0 22.7064L16.5134 14.4492H0V22.7064ZM25.3103 18.3195H29.0516L30.2765 14.554H36.2388L37.4614 18.3195H41.2027L35.5102 1.80615H31.0109L25.3103 18.3195ZM35.354 11.8287L33.325 5.57971H33.196L31.1631 11.8287H35.354ZM42.4446 5.93448V18.3195H45.8795V11.3126C45.8795 10.8073 45.9924 10.3612 46.2182 9.97413C46.4493 9.5871 46.7611 9.28607 47.1535 9.07105C47.5513 8.85066 48.0028 8.74046 48.5081 8.74046C48.7447 8.74046 49.0054 8.75928 49.2903 8.79691C49.5752 8.83453 49.7982 8.87754 49.9595 8.92592V5.87804C49.809 5.84041 49.6343 5.81085 49.4354 5.78935C49.2365 5.76785 49.0511 5.75709 48.879 5.75709C48.1856 5.75709 47.5728 5.95599 47.0406 6.35377C46.5085 6.74618 46.1295 7.32672 45.9037 8.09541H45.7747V5.93448H42.4446ZM51.0542 5.93448V18.3195H54.4891V5.93448H51.0542ZM51.4735 3.83C51.8391 4.16865 52.2772 4.33798 52.7878 4.33798C53.2985 4.33798 53.7339 4.16865 54.094 3.83C54.4596 3.48597 54.6423 3.07475 54.6423 2.59634C54.6423 2.1233 54.4596 1.71745 54.094 1.3788C53.7339 1.03477 53.2958 0.862757 52.7798 0.862757C52.2745 0.862757 51.8391 1.03477 51.4735 1.3788C51.108 1.71745 50.9252 2.1233 50.9252 2.59634C50.9252 3.07475 51.108 3.48597 51.4735 3.83ZM63.7196 9.65966L66.8642 9.46615C66.7137 8.32655 66.1869 7.42617 65.2839 6.76499C64.3862 6.10381 63.1552 5.77322 61.5909 5.77322C60.532 5.77322 59.6074 5.92911 58.8172 6.24088C58.0324 6.55266 57.4223 6.99613 56.9869 7.57131C56.5568 8.14648 56.3418 8.83185 56.3418 9.62741C56.3418 10.552 56.6348 11.3126 57.2207 11.9093C57.812 12.506 58.7124 12.9252 59.9219 13.1671L62.0667 13.5945C62.6042 13.702 63.002 13.8579 63.26 14.0621C63.518 14.261 63.6497 14.5164 63.6551 14.8281C63.6497 15.1991 63.4616 15.5028 63.0907 15.7393C62.7251 15.9704 62.2414 16.086 61.6393 16.086C61.0265 16.086 60.5239 15.957 60.1315 15.699C59.7391 15.4356 59.4918 15.0539 59.3897 14.554L56.0112 14.7314C56.1779 15.914 56.745 16.8493 57.7126 17.5374C58.6855 18.2201 59.9917 18.5614 61.6312 18.5614C62.7063 18.5614 63.6551 18.3921 64.4775 18.0534C65.3054 17.7094 65.9558 17.231 66.4288 16.6182C66.9072 16.0054 67.1465 15.2931 67.1465 14.4814C67.1465 13.5891 66.8508 12.8688 66.2595 12.3205C65.6682 11.7722 64.7705 11.3744 63.5664 11.1272L61.3248 10.6756C60.7497 10.552 60.3438 10.388 60.1073 10.1838C59.8708 9.9795 59.7525 9.72954 59.7525 9.43389C59.7525 9.06299 59.9353 8.76734 60.3008 8.54695C60.6664 8.32118 61.1152 8.2083 61.6474 8.2083C62.0452 8.2083 62.3865 8.27549 62.6714 8.40987C62.9617 8.53889 63.1955 8.71359 63.3729 8.93398C63.5503 9.149 63.6659 9.39089 63.7196 9.65966ZM70.9827 17.7873C71.9019 18.3034 72.9984 18.5614 74.2724 18.5614C75.2938 18.5614 76.1941 18.4055 76.9736 18.0937C77.7584 17.7766 78.3981 17.3358 78.8926 16.7714C79.3925 16.2016 79.7231 15.535 79.8844 14.7717L76.7075 14.5621C76.5892 14.8738 76.4172 15.1372 76.1915 15.3523C75.9657 15.5673 75.6942 15.7285 75.3771 15.836C75.0599 15.9436 74.7105 15.9973 74.3289 15.9973C73.7537 15.9973 73.2565 15.8764 72.8372 15.6345C72.4179 15.3926 72.0927 15.0485 71.8615 14.6024C71.6358 14.1562 71.5229 13.6267 71.5229 13.0139V13.0059H79.957V12.0625C79.957 11.0089 79.8091 10.0897 79.5135 9.30488C79.2178 8.5147 78.8039 7.85889 78.2718 7.33747C77.745 6.81606 77.1268 6.42634 76.4172 6.16832C75.713 5.90492 74.9524 5.77322 74.1354 5.77322C72.9205 5.77322 71.8615 6.04199 70.9585 6.57954C70.0608 7.11708 69.3647 7.86695 68.8701 8.82916C68.3756 9.79136 68.1283 10.9095 68.1283 12.1834C68.1283 13.4897 68.3756 14.6212 68.8701 15.578C69.3647 16.5295 70.0688 17.2659 70.9827 17.7873ZM71.5261 10.8772C71.5468 10.4325 71.6613 10.0266 71.8696 9.65966C72.0954 9.25651 72.4072 8.93667 72.8049 8.70015C73.2081 8.45825 73.6704 8.33731 74.1918 8.33731C74.6917 8.33731 75.1298 8.4475 75.5061 8.6679C75.8877 8.88291 76.1861 9.18125 76.4011 9.56291C76.6161 9.94456 76.7236 10.3827 76.7236 10.8772H71.5261ZM86.1558 1.80615V18.3195H89.6472V11.4981H96.7347V18.3195H100.218V1.80615H96.7347V8.61952H89.6472V1.80615H86.1558ZM104.705 17.7873C105.624 18.3034 106.721 18.5614 107.995 18.5614C109.016 18.5614 109.917 18.4055 110.696 18.0937C111.481 17.7766 112.121 17.3358 112.615 16.7714C113.115 16.2016 113.446 15.535 113.607 14.7717L110.43 14.5621C110.312 14.8738 110.14 15.1372 109.914 15.3523C109.688 15.5673 109.417 15.7285 109.1 15.836C108.783 15.9436 108.433 15.9973 108.052 15.9973C107.476 15.9973 106.979 15.8764 106.56 15.6345C106.141 15.3926 105.815 15.0485 105.584 14.6024C105.358 14.1562 105.246 13.6267 105.246 13.0139V13.0059H113.68V12.0625C113.68 11.0089 113.532 10.0897 113.236 9.30488C112.94 8.5147 112.527 7.85889 111.994 7.33747C111.468 6.81606 110.849 6.42634 110.14 6.16832C109.436 5.90492 108.675 5.77322 107.858 5.77322C106.643 5.77322 105.584 6.04199 104.681 6.57954C103.783 7.11708 103.087 7.86695 102.593 8.82916C102.098 9.79136 101.851 10.9095 101.851 12.1834C101.851 13.4897 102.098 14.6212 102.593 15.578C103.087 16.5295 103.791 17.2659 104.705 17.7873ZM105.249 10.8772C105.269 10.4325 105.384 10.0266 105.592 9.65966C105.818 9.25651 106.13 8.93667 106.528 8.70015C106.931 8.45825 107.393 8.33731 107.914 8.33731C108.414 8.33731 108.852 8.4475 109.229 8.6679C109.61 8.88291 109.909 9.18125 110.124 9.56291C110.339 9.94456 110.446 10.3827 110.446 10.8772H105.249ZM116.659 18.1421C117.277 18.4163 117.981 18.5533 118.772 18.5533C119.384 18.5533 119.925 18.4727 120.392 18.3114C120.86 18.1448 121.26 17.9163 121.594 17.6261C121.927 17.3304 122.193 16.9891 122.392 16.602H122.489V18.3195H125.746V9.96606C125.746 9.22963 125.604 8.59801 125.319 8.07122C125.034 7.53905 124.644 7.10364 124.15 6.76499C123.661 6.42634 123.099 6.17638 122.465 6.01512C121.836 5.85385 121.177 5.77322 120.489 5.77322C119.5 5.77322 118.629 5.92373 117.877 6.22476C117.129 6.52041 116.519 6.94507 116.046 7.49874C115.573 8.04703 115.256 8.69746 115.095 9.45002L118.272 9.70804C118.39 9.29951 118.632 8.96086 118.997 8.69209C119.363 8.41794 119.855 8.28086 120.473 8.28086C121.059 8.28086 121.51 8.42062 121.828 8.70015C122.15 8.97967 122.311 9.37477 122.311 9.88543V9.93381C122.311 10.1972 122.212 10.3961 122.013 10.5305C121.814 10.6649 121.494 10.767 121.054 10.8369C120.613 10.9014 120.032 10.9713 119.312 11.0465C118.699 11.1057 118.113 11.2078 117.554 11.3529C117 11.4981 116.506 11.7131 116.07 11.998C115.635 12.2829 115.291 12.6592 115.038 13.1268C114.786 13.5945 114.659 14.1723 114.659 14.8604C114.659 15.6775 114.837 16.3601 115.192 16.9084C115.552 17.4514 116.041 17.8626 116.659 18.1421ZM121.094 15.8844C120.707 16.0833 120.261 16.1828 119.755 16.1828C119.229 16.1828 118.793 16.0618 118.449 15.8199C118.11 15.5726 117.941 15.2152 117.941 14.7475C117.941 14.425 118.024 14.1562 118.191 13.9412C118.358 13.7208 118.592 13.5461 118.893 13.4171C119.194 13.2881 119.546 13.194 119.949 13.1349C120.137 13.108 120.347 13.0784 120.578 13.0462C120.809 13.0086 121.04 12.9682 121.271 12.9252C121.502 12.8769 121.709 12.8258 121.892 12.772C122.08 12.7129 122.228 12.6484 122.336 12.5785V13.8928C122.336 14.3282 122.225 14.718 122.005 15.062C121.785 15.406 121.481 15.6802 121.094 15.8844ZM131.165 18.3195V1.80615H127.73V18.3195H131.165ZM139.823 8.5147V5.93448H137.493V2.96724H134.058V5.93448H132.364V8.5147H134.058V14.9652C134.052 15.7769 134.222 16.4488 134.566 16.981C134.91 17.5132 135.391 17.9056 136.009 18.1582C136.633 18.4109 137.358 18.5211 138.186 18.4888C138.632 18.4727 139.011 18.427 139.323 18.3517C139.635 18.2819 139.877 18.2201 140.049 18.1663L139.508 15.6103C139.422 15.6264 139.299 15.6506 139.137 15.6828C138.976 15.7097 138.815 15.7232 138.654 15.7232C138.423 15.7232 138.218 15.6882 138.041 15.6183C137.869 15.5485 137.734 15.4275 137.638 15.2555C137.541 15.0781 137.493 14.8308 137.493 14.5137V8.5147H139.823ZM145.08 18.3195V11.1594C145.086 10.6272 145.188 10.173 145.387 9.79674C145.591 9.41508 145.87 9.12481 146.225 8.92592C146.585 8.72703 146.999 8.62758 147.467 8.62758C148.166 8.62758 148.709 8.83991 149.096 9.26457C149.488 9.68923 149.682 10.2832 149.676 11.0465V18.3195H153.111V10.4337C153.116 9.46615 152.939 8.63564 152.579 7.94221C152.224 7.2434 151.724 6.70855 151.079 6.33764C150.44 5.96136 149.69 5.77322 148.83 5.77322C147.889 5.77322 147.107 5.98286 146.483 6.40215C145.86 6.81606 145.408 7.38854 145.129 8.1196H144.983V1.80615H141.645V18.3195H145.08Z" fill="#71767D"/>
</svg>
