<svg width="113" height="23" viewBox="0 0 113 23" fill="none" xmlns="http://www.w3.org/2000/svg">
<path d="M0 18.5553H11.768V15.4791H3.9308V11.1332H9.88804V8.25224H3.9308V4.17495H11.3774V1.09867H0V18.5553Z" fill="#71767D"/>
<path d="M13.2262 22.9012H16.7664V16.6021C17.4256 17.8473 18.8661 18.8239 20.8437 18.8239C24.0176 18.8239 26.4103 16.4557 26.4103 12.2319V12.0366C26.4103 7.81277 23.9688 5.49336 20.8437 5.49336C18.9637 5.49336 17.4744 6.56761 16.7664 7.78836V5.78634H13.2262V22.9012ZM19.7938 16.065C17.865 16.065 16.6443 14.8199 16.6443 12.2563V12.061C16.6443 9.4974 17.9139 8.20341 19.7694 8.20341C21.5517 8.20341 22.8213 9.47299 22.8213 12.061V12.2563C22.8213 14.7466 21.747 16.065 19.7938 16.065Z" fill="#71767D"/>
<path d="M27.795 18.5553H31.3352V11.182C31.3352 9.30208 32.4827 8.37432 33.9964 8.37432C35.559 8.37432 36.2426 9.20442 36.2426 10.9379V18.5553H39.7828V10.4252C39.7828 7.00708 38.0005 5.49336 35.4857 5.49336C33.3616 5.49336 31.97 6.5432 31.3352 7.81277V0H27.795V18.5553Z" fill="#71767D"/>
<path d="M41.937 18.5553H45.4528V5.78634H41.937V18.5553ZM43.6705 4.05288C44.818 4.05288 45.6969 3.22277 45.6969 2.1241C45.6969 1.02543 44.818 0.19532 43.6705 0.19532C42.5474 0.19532 41.6684 1.02543 41.6684 2.1241C41.6684 3.22277 42.5474 4.05288 43.6705 4.05288Z" fill="#71767D"/>
<path d="M53.5158 18.8239C57.2268 18.8239 59.4242 16.7242 59.6195 13.6968H56.4211C56.2502 15.3326 55.1027 16.1627 53.6867 16.1627C51.7091 16.1627 50.5616 14.8443 50.5616 12.2807V12.0854C50.5616 9.64389 51.7823 8.27666 53.6134 8.27666C55.0539 8.27666 55.9573 8.96027 56.2014 10.4496H59.5463C59.2289 6.78735 56.4944 5.49336 53.5402 5.49336C49.9024 5.49336 46.9482 8.00809 46.9482 12.1342V12.3295C46.9482 16.5045 49.7803 18.8239 53.5158 18.8239Z" fill="#71767D"/>
<path d="M60.9654 18.5553H64.4811V5.78634H60.9654V18.5553ZM62.6988 4.05288C63.8463 4.05288 64.7253 3.22277 64.7253 2.1241C64.7253 1.02543 63.8463 0.19532 62.6988 0.19532C61.5757 0.19532 60.6968 1.02543 60.6968 2.1241C60.6968 3.22277 61.5757 4.05288 62.6988 4.05288Z" fill="#71767D"/>
<path d="M72.6418 18.8239C76.1331 18.8239 78.3305 17.2858 78.7455 14.5269H75.4007C75.181 15.6011 74.3753 16.3092 72.7395 16.3092C70.8107 16.3092 69.6632 15.0884 69.5655 12.9643H78.77V11.9877C78.77 7.42213 75.8402 5.49336 72.5442 5.49336C68.8331 5.49336 65.9765 8.10575 65.9765 12.1342V12.3295C65.9765 16.4068 68.7843 18.8239 72.6418 18.8239ZM69.6144 10.7914C69.8829 8.98469 70.9572 7.93485 72.5442 7.93485C74.2288 7.93485 75.2054 8.86261 75.3275 10.7914H69.6144Z" fill="#71767D"/>
<path d="M80.1107 18.5553H83.6508V11.182C83.6508 9.30208 84.7983 8.37432 86.3121 8.37432C87.8746 8.37432 88.5582 9.20442 88.5582 10.9379V18.5553H92.0984V10.4252C92.0984 7.00708 90.3161 5.49336 87.8014 5.49336C85.6773 5.49336 84.2856 6.5432 83.6508 7.81277V5.78634H80.1107V18.5553Z" fill="#71767D"/>
<path d="M98.8182 18.7995C99.7704 18.7995 100.478 18.6286 100.967 18.4577V15.7232C100.552 15.8941 100.161 15.9674 99.6239 15.9674C98.7206 15.9674 98.2079 15.4791 98.2079 14.4536V8.30107H100.893V5.78634H98.2079V3.02745H94.6921V5.78634H93.0563V8.30107H94.6921V14.771C94.6921 17.4323 96.1326 18.7995 98.8182 18.7995Z" fill="#71767D"/>
<path d="M105.235 8.88703H106.749V6.95825H107.14L108.238 8.88703H109.801L108.507 6.68969C109.068 6.44554 109.484 6.03048 109.484 5.24921V5.22479C109.484 4.10171 108.702 3.54016 107.311 3.54016H105.235V8.88703ZM106.749 5.98165V4.68766H107.237C107.726 4.68766 108.019 4.85857 108.019 5.29804V5.32245C108.019 5.76192 107.75 5.98165 107.237 5.98165H106.749ZM107.237 10.767C104.723 10.767 102.745 8.98469 102.745 6.29905C102.745 3.63782 104.625 1.78229 107.237 1.78229C109.85 1.78229 111.73 3.61341 111.73 6.27463C111.73 8.93586 109.777 10.767 107.237 10.767ZM107.237 11.6947C110.314 11.6947 112.755 9.3265 112.755 6.27463C112.755 3.2716 110.362 0.854523 107.237 0.854523C104.137 0.854523 101.695 3.29602 101.695 6.29905C101.695 9.35091 104.161 11.6947 107.237 11.6947Z" fill="#71767D"/>
</svg>
