<svg width="101" height="22" viewBox="0 0 101 22" fill="none" xmlns="http://www.w3.org/2000/svg">
<path d="M12.2203 11.574C13.3659 10.634 14.0416 9.25335 14.0416 7.75519V4.93512C14.0416 2.23255 11.8384 0.0587524 9.13584 0.0587524H4.87637C2.1738 0.0587524 0 2.23255 0 4.93512V7.02079H4.3476V4.93512C4.3476 4.64136 4.58261 4.40636 4.87637 4.40636H9.13584C9.45898 4.40636 9.69398 4.64136 9.69398 4.93512V7.75519C9.69398 7.93144 9.60586 8.07832 9.48835 8.19582C9.1946 8.43083 8.90084 8.66583 8.60708 8.95959L0 17.0967V21.4443H13.9828V17.0673H6.34515L11.574 12.1028C11.7797 11.9265 11.9853 11.7503 12.2203 11.574Z" fill="#71767D"/>
<path d="M24.6556 0H20.3962C17.6936 0 15.5198 2.20318 15.5198 4.90574V16.4798C15.5198 19.1823 17.6936 21.3855 20.3962 21.3855H24.6556C27.3582 21.3855 29.5614 19.1823 29.5614 16.4798V4.90574C29.5614 2.20318 27.3582 0 24.6556 0ZM25.2138 4.90574V16.4798C25.2138 16.8029 24.9788 17.0379 24.6556 17.0379H20.3962C20.1024 17.0379 19.8674 16.8029 19.8674 16.4798V4.90574C19.8674 4.58261 20.1024 4.3476 20.3962 4.3476H24.6556C24.9788 4.3476 25.2138 4.58261 25.2138 4.90574Z" fill="#71767D"/>
<path d="M43.5467 11.574C44.6924 10.634 45.368 9.25335 45.368 7.75519V4.93512C45.368 2.23255 43.1648 0.0587524 40.4623 0.0587524H36.2028C33.5002 0.0587524 31.3264 2.23255 31.3264 4.93512V7.02079H35.674V4.93512C35.674 4.64136 35.909 4.40636 36.2028 4.40636H40.4623C40.7854 4.40636 41.0204 4.64136 41.0204 4.93512V7.75519C41.0204 7.93144 40.9323 8.07832 40.8148 8.19582C40.521 8.43083 40.2273 8.66583 39.9335 8.95959L31.3264 17.0967V21.4443H45.3093V17.0673H37.6716L42.9005 12.1028C43.1061 11.9265 43.3117 11.7503 43.5467 11.574Z" fill="#71767D"/>
<path d="M55.9821 0H51.7226C49.02 0 46.8462 2.20318 46.8462 4.90574V16.4798C46.8462 19.1823 49.02 21.3855 51.7226 21.3855H55.9821C58.6846 21.3855 60.8878 19.1823 60.8878 16.4798V4.90574C60.8878 2.20318 58.6846 0 55.9821 0ZM56.5402 4.90574V16.4798C56.5402 16.8029 56.3052 17.0379 55.9821 17.0379H51.7226C51.4288 17.0379 51.1938 16.8029 51.1938 16.4798V4.90574C51.1938 4.58261 51.4288 4.3476 51.7226 4.3476H55.9821C56.3052 4.3476 56.5402 4.58261 56.5402 4.90574Z" fill="#71767D"/>
<path d="M63.2404 21.3855H67.588V0H63.2404V21.3855Z" fill="#71767D"/>
<path d="M84.9798 0H80.6322V12.3084L74.7277 0H69.9394V21.3855H74.287V9.07709L80.1622 21.3855H84.9798V0Z" fill="#71767D"/>
<path d="M96.2972 7.78456H100.645V4.90574C100.645 2.20318 98.4417 0 95.7391 0H91.509C88.8064 0 86.6033 2.20318 86.6033 4.90574V16.4798C86.6033 19.1823 88.8064 21.3855 91.509 21.3855H95.7391C98.4417 21.3855 100.645 19.1823 100.645 16.4798V13.5128H96.2972V16.4798C96.2972 16.7735 96.0329 17.0379 95.7391 17.0379H91.509C91.1859 17.0379 90.9509 16.7735 90.9509 16.4798V4.90574C90.9509 4.61198 91.1859 4.3476 91.509 4.3476H95.7391C96.0329 4.3476 96.2972 4.61198 96.2972 4.90574V7.78456Z" fill="#71767D"/>
</svg>
