<svg width="107" height="35" viewBox="0 0 107 35" fill="none" xmlns="http://www.w3.org/2000/svg">
<path fill-rule="evenodd" clip-rule="evenodd" d="M17.4164 34.8328H89.4043C99.0801 34.8328 106.821 27.0922 106.821 17.4164C106.821 7.86964 98.9511 0 89.4043 0H17.4164C7.86964 0 0 7.86964 0 17.4164C0 27.0922 7.86964 34.8328 17.4164 34.8328ZM2.32219 17.4164C2.32219 9.03074 9.03074 2.32219 17.4164 2.32219H89.4043C97.79 2.32219 104.499 9.03074 104.499 17.4164C104.499 25.8021 97.79 32.5107 89.4043 32.5107H17.4164C9.03074 32.5107 2.32219 25.8021 2.32219 17.4164ZM12.9011 12.9488H16.5301V24.5242H19.0746V12.9488H22.7454V10.3208H12.9011V12.9488ZM30.8557 24.5242H33.4836V10.3208H30.8557V16.2233H26.2881V10.3208H23.6393V24.5242H26.2881V18.6009H30.8557V24.5242ZM37.8298 22.1257H44.9002V24.5242H35.1393V10.3208H44.9002V12.7194H37.8298V16.2233H44.9002V18.6009H37.8298V22.1257ZM47.4304 16.0773C47.1801 16.2858 47.0549 16.6474 47.0549 17.1618C47.0549 17.6624 47.1801 18.0239 47.4304 18.2464C47.6806 18.4688 47.9796 18.5801 48.3272 18.5801C48.6887 18.5801 48.9946 18.4688 49.2449 18.2464C49.5091 18.0239 49.6412 17.6624 49.6412 17.1618C49.6412 16.6474 49.5091 16.2858 49.2449 16.0773C48.9946 15.8687 48.6887 15.7644 48.3272 15.7644C47.9796 15.7644 47.6806 15.8687 47.4304 16.0773ZM57.537 10.3208C58.0793 10.3208 58.5868 10.4251 59.0596 10.6337C59.5323 10.8284 59.9355 11.0995 60.2693 11.4471C60.6169 11.7947 60.888 12.2049 61.0827 12.6776C61.2912 13.1504 61.3955 13.651 61.3955 14.1793V14.805C61.3955 15.3334 61.2912 15.8339 61.0827 16.3067C60.888 16.7655 60.6169 17.1757 60.2693 17.5372C59.9355 17.8849 59.5323 18.156 59.0596 18.3506C58.5868 18.5453 58.0793 18.6426 57.537 18.6426H53.9497V24.5242H51.4469V10.3208H57.537ZM53.9497 12.8028V16.1607H57.1199C57.7178 16.1607 58.1558 16.0147 58.4339 15.7227C58.712 15.4307 58.851 15.0205 58.851 14.4922C58.851 13.9916 58.712 13.5884 58.4339 13.2825C58.1558 12.9627 57.7178 12.8028 57.1199 12.8028H53.9497ZM64.5053 22.3551H68.322L68.8226 24.5242H71.3254L67.8215 10.3208H65.1101L61.4602 24.5242H63.9839L64.5053 22.3551ZM67.8423 20.2486H65.0058L66.3824 14.4505H66.5284L67.8423 20.2486ZM79.0461 22.3551H75.2293L74.7079 24.5242H72.1843L75.8342 10.3208H78.5455L82.0495 24.5242H79.5467L79.0461 22.3551ZM75.7299 20.2486H78.5664L77.2524 14.4505H77.1064L75.7299 20.2486ZM90.5836 20.9369L87.9139 17.3287L93.2532 10.3208H90.5001L86.2454 15.9313H86.1202V10.3208H83.4297V24.5242H86.1202V18.9138H86.2454L90.5001 24.5242H93.2741C92.8291 23.9402 92.3842 23.3493 91.9392 22.7514C91.4943 22.1535 91.0424 21.5487 90.5836 20.9369Z" fill="#71767D"/>
</svg>
