<svg width="165" height="22" viewBox="0 0 165 22" fill="none" xmlns="http://www.w3.org/2000/svg">
<path fill-rule="evenodd" clip-rule="evenodd" d="M0 21.8788C5.93218 21.812 10.7563 17.2427 11.0564 11.5068C11.3525 17.1672 16.0542 21.6914 21.8788 21.8738V0.00500435C16.0542 0.187456 11.3525 4.71165 11.0564 10.3719C10.7563 4.63603 5.93218 0.0667812 0 0V21.8788ZM56.4321 18.9249C58.0074 18.9249 59.3639 18.5821 60.5016 17.8966C61.6466 17.2111 62.5254 16.2521 63.138 15.0196C63.7579 13.787 64.0678 12.354 64.0678 10.7204C64.0678 9.08676 63.7579 7.6537 63.138 6.4212C62.5254 5.1887 61.6466 4.22968 60.5016 3.54414C59.3639 2.85861 58.0074 2.51584 56.4321 2.51584C54.8569 2.51584 53.4967 2.85861 52.3518 3.54414C51.2141 4.22968 50.3353 5.1887 49.7154 6.4212C49.1028 7.6537 48.7965 9.08676 48.7965 10.7204C48.7965 12.354 49.1028 13.787 49.7154 15.0196C50.3353 16.2521 51.2141 17.2111 52.3518 17.8966C53.4967 18.5821 54.8569 18.9249 56.4321 18.9249ZM56.4321 16.1244C54.9371 16.1026 53.814 15.6066 53.0628 14.6367C52.3189 13.6667 51.947 12.3613 51.947 10.7204C51.947 9.07947 52.3189 7.7631 53.0628 6.77126C53.814 5.77942 54.9371 5.29444 56.4321 5.31632C57.9345 5.3382 59.0576 5.83412 59.8015 6.80408C60.5454 7.77404 60.9173 9.07947 60.9173 10.7204C60.9173 12.3613 60.5454 13.6777 59.8015 14.6695C59.0576 15.6613 57.9345 16.1463 56.4321 16.1244ZM40.1904 18.5967H43.1659V5.62263H48.1324V2.84402H35.2239V5.62263H40.1904V18.5967ZM76.8628 17.8966C75.7251 18.5821 74.3686 18.9249 72.7933 18.9249C71.2181 18.9249 69.858 18.5821 68.713 17.8966C67.5753 17.2111 66.6965 16.2521 66.0766 15.0196C65.464 13.787 65.1577 12.354 65.1577 10.7204C65.1577 9.08676 65.464 7.6537 66.0766 6.4212C66.6965 5.1887 67.5753 4.22968 68.713 3.54414C69.858 2.85861 71.2181 2.51584 72.7933 2.51584C74.3686 2.51584 75.7251 2.85861 76.8628 3.54414C78.0078 4.22968 78.8866 5.1887 79.4992 6.4212C80.1191 7.6537 80.429 9.08676 80.429 10.7204C80.429 12.354 80.1191 13.787 79.4992 15.0196C78.8866 16.2521 78.0078 17.2111 76.8628 17.8966ZM69.424 14.6367C70.1752 15.6066 71.2983 16.1026 72.7933 16.1244C74.2957 16.1463 75.4188 15.6613 76.1627 14.6695C76.9066 13.6777 77.2785 12.3613 77.2785 10.7204C77.2785 9.07947 76.9066 7.77404 76.1627 6.80408C75.4188 5.83412 74.2957 5.3382 72.7933 5.31632C71.2983 5.29444 70.1752 5.77942 69.424 6.77126C68.6801 7.7631 68.3082 9.07947 68.3082 10.7204C68.3082 12.3613 68.6801 13.6667 69.424 14.6367ZM88.9577 18.9249C90.4746 18.9249 91.791 18.5967 92.9068 17.9404C94.0226 17.2767 94.8868 16.3614 95.4994 15.1946C96.112 14.0277 96.4183 12.6895 96.4183 11.1798C96.4183 11.1434 96.4147 11.0048 96.4074 10.7641C96.4001 10.5235 96.3891 10.3557 96.3746 10.2609H90.7079V12.5582H93.2021C92.9615 13.8053 92.4801 14.7169 91.7581 15.293C91.0434 15.8692 90.1756 16.1463 89.1546 16.1244C87.6595 16.1026 86.5364 15.6066 85.7852 14.6367C85.0414 13.6667 84.6694 12.3613 84.6694 10.7204C84.6694 9.07947 85.0414 7.7631 85.7852 6.77126C86.5364 5.77942 87.6595 5.29444 89.1546 5.31632C90.161 5.32362 90.9851 5.60439 91.6269 6.15866C92.2759 6.70562 92.7427 7.43856 93.0271 8.35747L96.0683 7.9199C95.6744 6.19877 94.8977 4.86781 93.7382 3.92702C92.5786 2.98624 90.9851 2.51584 88.9577 2.51584C87.5866 2.51584 86.3359 2.83673 85.2054 3.47851C84.0823 4.12029 83.1853 5.05378 82.5144 6.27899C81.8507 7.49691 81.5189 8.97737 81.5189 10.7204C81.5189 12.055 81.7158 13.2328 82.1096 14.2538C82.5107 15.2748 83.054 16.1317 83.7396 16.8245C84.4324 17.5174 85.2273 18.0425 86.1244 18.3998C87.0214 18.7499 87.9658 18.9249 88.9577 18.9249ZM108.675 18.5967H98.392V2.84402H108.675V5.62263H101.368V8.99195H107.362V11.7706H101.368V15.8181H108.675V18.5967ZM114.732 18.5967H117.708V5.62263H122.674V2.84402H109.766V5.62263H114.732V18.5967ZM127.189 18.5967H124.213V2.84402H127.189V9.32014H134.234V2.84402H137.209V18.5967H134.234V12.0987H127.189V18.5967ZM140.062 18.5967H150.345V15.8181H143.037V11.7706H149.032V8.99195H143.037V5.62263H150.345V2.84402H140.062V18.5967ZM155.723 18.5967H152.748V2.84402H159.399C159.552 2.84402 159.756 2.85132 160.012 2.8659C160.274 2.8732 160.508 2.89507 160.712 2.93154C162.127 3.15033 163.159 3.72647 163.808 4.65996C164.457 5.59345 164.781 6.72386 164.781 8.05117C164.781 9.12323 164.566 10.075 164.136 10.9063C163.713 11.7304 163.053 12.3467 162.156 12.7551L165 18.5967H161.631L159.038 13.2583H155.723V18.5967ZM155.723 5.62263V10.4797H159.268C159.421 10.4797 159.589 10.4724 159.771 10.4578C159.953 10.4432 160.121 10.4141 160.274 10.3703C160.675 10.2609 160.985 10.0786 161.204 9.82335C161.423 9.5608 161.572 9.27273 161.653 8.95914C161.74 8.63825 161.784 8.33559 161.784 8.05117C161.784 7.76674 161.74 7.46773 161.653 7.15414C161.572 6.83325 161.423 6.54518 161.204 6.28993C160.985 6.02738 160.675 5.84141 160.274 5.73202C160.121 5.68826 159.953 5.65909 159.771 5.64451C159.589 5.62992 159.421 5.62263 159.268 5.62263H155.723Z" fill="#71767D"/>
</svg>
